<?xml version="1.0" encoding="utf-8"?>
<svg width="512" height="512" viewBox="0 0 32 32" xmlns="http://www.w3.org/2000/svg">
  <defs>
    <linearGradient id="bgGradient" x1="0%" y1="0%" x2="100%" y2="100%">
      <stop offset="0%" style="stop-color:#1e3a8a;stop-opacity:1" />
      <stop offset="50%" style="stop-color:#3b82f6;stop-opacity:1" />
      <stop offset="100%" style="stop-color:#60a5fa;stop-opacity:1" />
    </linearGradient>
    <filter id="shadow">
      <feDropShadow dx="0" dy="2" stdDeviation="3" flood-opacity="0.3"/>
    </filter>
  </defs>
  
  <!-- Background with rounded corners -->
  <rect width="32" height="32" rx="6" fill="url(#bgGradient)"/>
  
  <!-- Icon group with white fill and shadow -->
  <g fill="#ffffff" filter="url(#shadow)">
    <rect x="12" y="24" width="9" height="2"/>
    <rect x="13" y="28" width="6" height="2"/>
    <path d="M8.7832,18.9746l1.4177-1.418A6.9206,6.9206,0,0,1,8,12,7.99,7.99,0,0,1,21.5273,6.2305l1.4136-1.4136A9.9884,9.9884,0,0,0,6,12,8.9411,8.9411,0,0,0,8.7832,18.9746Z"/>
    <path d="M30,3.4141,28.5859,2,2,28.5859,3.4141,30,23.6606,9.7534A7.7069,7.7069,0,0,1,24,12a7.2032,7.2032,0,0,1-2.8223,6.1426C20.1069,19.1348,19,20.1611,19,22h2c0-.9194.5264-1.45,1.5352-2.3857A9.193,9.193,0,0,0,26,12a9.8739,9.8739,0,0,0-.7764-3.81Z"/>
  </g>
</svg>